<?xml version="1.0" encoding="UTF-8" standalone="no"?>
<!DOCTYPE svg PUBLIC "-//W3C//DTD SVG 1.1//EN" "http://www.w3.org/Graphics/SVG/1.1/DTD/svg11.dtd">
<svg width="100%" height="100%" viewBox="0 0 72 72" version="1.1" xmlns="http://www.w3.org/2000/svg" xmlns:xlink="http://www.w3.org/1999/xlink" xml:space="preserve" xmlns:serif="http://www.serif.com/" style="fill-rule:evenodd;clip-rule:evenodd;stroke-linecap:round;stroke-linejoin:round;">
    <g id="color">
        <circle cx="36" cy="36" r="23" style="fill:rgb(0,114,178);"/>
    </g>
    <g id="line">
        <circle cx="36" cy="36.001" r="23" style="fill:none;stroke:black;stroke-width:2px;"/>
        <path d="M22.591,41.145C22.591,37.852 25.3,35.143 28.593,35.143C30.575,35.143 32.434,36.125 33.551,37.763L34.303,37.335C34.241,37.149 34.209,36.954 34.209,36.758C34.209,35.926 34.777,35.194 35.582,34.986L35.608,34.322C32.473,34.113 30.005,31.475 30.005,28.333C30.005,25.291 32.317,22.705 35.34,22.367L35.123,21.347C31.099,21.795 28.02,25.235 28.02,29.285C28.02,30.461 28.28,31.624 28.781,32.688C24.649,33.02 21.426,36.513 21.426,40.658C21.444,41.734 21.661,42.798 22.066,43.796L23.028,43.399C22.738,42.683 22.59,41.917 22.591,41.145Z" style="fill-rule:nonzero;"/>
        <path d="M46.403,46.324C45.493,46.847 44.463,47.121 43.414,47.121C40.121,47.121 37.411,44.412 37.411,41.119C37.411,40.214 37.616,39.32 38.01,38.506L37.371,38.007C37.025,38.375 36.542,38.584 36.038,38.584C35.553,38.584 35.088,38.392 34.745,38.049L33.97,38.476C34.382,39.305 34.596,40.219 34.596,41.145C34.596,44.438 31.886,47.147 28.593,47.147C26.695,47.147 24.905,46.247 23.773,44.722L23.001,45.423C24.501,47.452 26.88,48.652 29.404,48.652C32.037,48.652 34.505,47.346 35.987,45.17C38.333,48.586 42.967,49.641 46.561,47.576C47.485,47.025 48.3,46.307 48.963,45.459L48.139,44.822C47.663,45.43 47.073,45.94 46.403,46.324Z" style="fill-rule:nonzero;"/>
        <path d="M49.51,36.662C48.21,34.396 45.878,32.906 43.276,32.679C45.047,28.948 43.623,24.426 40.033,22.384C39.094,21.858 38.065,21.51 36.999,21.358L36.859,22.389C39.801,22.812 42.009,25.359 42.009,28.332C42.009,31.463 39.559,34.095 36.436,34.319L36.49,34.985C37.297,35.192 37.865,35.925 37.865,36.758C37.865,36.954 37.834,37.149 37.772,37.335L38.42,37.787C39.532,36.121 41.409,35.117 43.412,35.117C46.706,35.117 49.415,37.827 49.415,41.12C49.415,41.945 49.245,42.761 48.916,43.518L49.908,43.838C50.919,41.52 50.772,38.854 49.51,36.662Z" style="fill-rule:nonzero;"/>
        <path d="M29.043,36.847C29.042,36.567 29.059,36.287 29.093,36.009L27.533,35.946C27.504,36.227 27.49,36.512 27.49,36.801C27.489,40.098 29.413,43.108 32.406,44.492L33.301,43.271C30.724,42.182 29.042,39.644 29.043,36.847Z" style="fill-rule:nonzero;"/>
        <path d="M40.946,29.951C38.004,27.811 33.997,27.794 31.036,29.908L31.851,31.254C34.318,29.418 37.722,29.421 40.186,31.26L40.946,29.951Z" style="fill-rule:nonzero;"/>
        <path d="M44.394,36.001L42.936,36.001C42.969,36.281 42.986,36.564 42.986,36.847C42.987,39.641 41.308,42.176 38.736,43.268L39.566,44.469C42.531,43.074 44.433,40.078 44.432,36.801C44.432,36.531 44.419,36.264 44.394,36.001Z" style="fill-rule:nonzero;"/>
    </g>
</svg>
