<?xml version="1.0" encoding="UTF-8" standalone="no"?><!DOCTYPE svg PUBLIC "-//W3C//DTD SVG 1.1//EN" "http://www.w3.org/Graphics/SVG/1.1/DTD/svg11.dtd"><svg width="100%" height="100%" viewBox="0 0 300 300" version="1.1" xmlns="http://www.w3.org/2000/svg" xmlns:xlink="http://www.w3.org/1999/xlink" xml:space="preserve" xmlns:serif="http://www.serif.com/" style="fill-rule:evenodd;clip-rule:evenodd;stroke-linecap:round;stroke-linejoin:round;"><g id="color"><circle cx="128.359" cy="145.092" r="92.599" style="fill:#5e40bf;"/></g><g id="line"><circle cx="128.359" cy="145.092" r="92.599" style="fill:none;stroke:#000;stroke-width:8.33px;"/><path d="M117.119,88.062c-15.653,-1.898 -30.629,-7.79 -43.441,-17.191" style="fill:none;stroke:#000;stroke-width:8.33px;"/><path d="M194.731,81.92c-7.587,10.249 -19.132,19.79 -32.297,26.286" style="fill:none;stroke:#000;stroke-width:8.33px;"/><path d="M104.393,112.693c-17.129,-5.41 -32.414,-15.97 -43.576,-30.513" style="fill:none;stroke:#000;stroke-width:8.33px;"/><path d="M204.786,94.398c-8.458,19.427 -27.391,36.96 -49.484,45.285" style="fill:none;stroke:#000;stroke-width:8.33px;"/><path d="M97.601,138.463c-19.723,-7.909 -36.325,-22.801 -46.173,-42.376" style="fill:none;stroke:#000;stroke-width:8.33px;"/><path d="M98.212,167.074c-25.387,-9.388 -46.053,-29.612 -55.501,-55.987" style="fill:none;stroke:#000;stroke-width:8.33px;"/><path d="M213.462,110.103c-7.555,23.604 -27.182,44.588 -51.192,55.264" style="fill:none;stroke:#000;stroke-width:8.33px;"/><path d="M114.077,199.758c-36.793,-5.65 -67.598,-32.836 -77.103,-69.698" style="fill:none;stroke:#000;stroke-width:8.33px;"/><path d="M133.536,219.237c-38.252,-0.917 -87.057,-22.956 -96.562,-59.818" style="fill:none;stroke:#000;stroke-width:8.33px;"/><path d="M218.996,127.297c-6.048,28.726 -25.227,52.085 -50.417,64.299" style="fill:none;stroke:#000;stroke-width:8.33px;"/><path d="M188.093,216.546c5.486,3.938 15.555,15.146 27.615,15.314c12.061,0.167 23.307,-13.128 29.407,-9.703c10.86,6.096 15.631,15.534 27.883,15.727" style="fill:none;fill-rule:nonzero;stroke:#000;stroke-width:8.33px;"/><path d="M157.577,232.683c-35.473,-14.536 -58.757,-49.256 -58.74,-87.591c-0.002,-38.031 23.418,-72.368 58.826,-86.247" style="fill:none;fill-rule:nonzero;stroke:#000;stroke-width:8.33px;"/><path d="M165.742,230.273c-32.741,-23.248 -46.834,-41.378 -46.818,-79.713c-0.002,-38.031 19.383,-72.357 48.982,-88.628" style="fill:none;fill-rule:nonzero;stroke:#000;stroke-width:8.33px;"/><path d="M177.871,66.31c-28.399,16.267 -42.262,46.249 -42.684,78.975c0.059,33.047 13.431,62.742 42.328,78.776" style="fill:none;fill-rule:nonzero;stroke:#000;stroke-width:8.33px;"/><path d="M185.74,74.27c-19.969,18.114 -31.364,43.861 -31.344,70.822c-0,28.767 12.022,55.892 33.697,71.454" style="fill:none;fill-rule:nonzero;stroke:#000;stroke-width:8.33px;"/></g></svg>